<svg viewBox="0 0 512 512" xmlns="http://www.w3.org/2000/svg">
  <defs>
    <linearGradient id="bg" x1="0" y1="0" x2="1" y2="1">
      <stop offset="0" stop-color="#7C3AED"/>
      <stop offset="1" stop-color="#EC4899"/>
    </linearGradient>
    <linearGradient id="cb" x1="0" y1="0" x2="0" y2="1">
      <stop offset="0" stop-color="#423b5e"/>
      <stop offset="1" stop-color="#211c33"/>
    </linearGradient>
    <linearGradient id="hpg" x1="0" y1="0" x2="1" y2="1">
      <stop offset="0" stop-color="#A78BFA"/>
      <stop offset="1" stop-color="#7C3AED"/>
    </linearGradient>
  </defs>
  <rect width="512" height="512" rx="112" fill="url(#bg)"/>
  <g transform="translate(56 66) scale(2)">
    <ellipse cx="100" cy="150" rx="47" ry="39" fill="url(#cb)"/>
    <path d="M65 70 L60 35 L93 60 Z" fill="url(#cb)"/>
    <path d="M135 70 L140 35 L107 60 Z" fill="url(#cb)"/>
    <path d="M71 62 L69 46 L85 60 Z" fill="#574d77"/>
    <path d="M129 62 L131 46 L115 60 Z" fill="#574d77"/>
    <circle cx="100" cy="99" r="44" fill="url(#cb)"/>
    <path d="M56 96 a44 42 0 0 1 88 0" stroke="url(#hpg)" stroke-width="9" stroke-linecap="round" fill="none"/>
    <rect x="43" y="86" width="22" height="34" rx="11" fill="url(#hpg)"/>
    <rect x="135" y="86" width="22" height="34" rx="11" fill="url(#hpg)"/>
    <path d="M77 103 q9 -8 17 0" stroke="#EDE9FF" stroke-width="3.6" stroke-linecap="round" fill="none"/>
    <path d="M106 103 q9 -8 17 0" stroke="#EDE9FF" stroke-width="3.6" stroke-linecap="round" fill="none"/>
    <ellipse cx="74" cy="114" rx="6" ry="3.4" fill="#EC4899" opacity=".55"/>
    <ellipse cx="126" cy="114" rx="6" ry="3.4" fill="#EC4899" opacity=".55"/>
    <path d="M97 111 h6 l-3 4 z" fill="#C4B5FD"/>
  </g>
</svg>
